PathFileType	4	(X/Y/Z)	/Users/niels/Desktop/University/Third Semester/Perception and Action/Exam/Gymnastics Motion Tracking/Code for Gym Tracking/Analyzed Data/Webcam_Backflip/id11_2_trajectory_Sports2D/id11_2_trajectory_Sports2D_px_person00.trc
DataRate	CameraRate	NumFrames	NumMarkers	Units	OrigDataRate	OrigDataStartFrame	OrigNumFrames
29.714285714285715	29.714285714285715	11	22	m	29.714285714285715	91	105
Frame#	Time	Hip			RHip			RKnee			RAnkle			RBigToe			RSmallToe			RHeel			LHip			LKnee			LAnkle			LBigToe			LSmallToe			LHeel			Neck			Head			Nose			RShoulder			RElbow			RWrist			LShoulder			LElbow			LWrist		
		X1	Y1	Z1	X2	Y2	Z2	X3	Y3	Z3	X4	Y4	Z4	X5	Y5	Z5	X6	Y6	Z6	X7	Y7	Z7	X8	Y8	Z8	X9	Y9	Z9	X10	Y10	Z10	X11	Y11	Z11	X12	Y12	Z12	X13	Y13	Z13	X14	Y14	Z14	X15	Y15	Z15	X16	Y16	Z16	X17	Y17	Z17	X18	Y18	Z18	X19	Y19	Z19	X20	Y20	Z20	X21	Y21	Z21	X22	Y22	Z22
91	3.0625	0.9357973742033683	-0.5886563169562963	0.0	0.9330029372375183	-0.5868303602832768	0.0	0.9265854159588679	-0.793761526919865	0.0	0.9106801806816086	-1.0024918563113747	0.0	1.0024656364339815	-1.0303393754960777	0.0	0.9834398474450722	-1.0402360388792469	0.0	0.8941002294291067	-1.0281589404571239	0.0	0.9445066110363805	-0.5861564743984522	0.0	0.9307045675602175	-0.7893349055881215	0.0	0.9142295235243554	-0.9823666144382455	0.0	1.0031578912323604	-1.0143002817342723	0.0	0.9906060747490311	-1.0085980436854285	0.0	0.8949352352347213	-1.012609686694455	0.0	0.9765028975807358	-0.3091369161324715	0.0	1.0249631607141305	-0.18991007112229086	0.0	1.0310291869180213	-0.2635883453112489	0.0	0.9377053822125795	-0.33961992633235655	0.0	0.8733300994818614	-0.4741990385457626	0.0	0.8341411353754531	-0.604997971933644	0.0	0.9573239919944995	-0.3438312699875908	0.0	0.9004044710942782	-0.4762949293186693	0.0	0.892654837621022	-0.5915181940390317	0.0
92	3.096153846153846	0.9351858409047746	-0.5877834666177325	0.0	0.9335328807368021	-0.5861349567268828	0.0	0.9280350701931966	-0.7931537274934933	0.0	0.9113354147003226	-1.0029216378033707	0.0	1.0037701033604296	-1.0305735925636659	0.0	0.9853610299084784	-1.0409437506864267	0.0	0.8946078852264299	-1.0282118813320507	0.0	0.9433680696144728	-0.5852242531640718	0.0	0.9287358452769425	-0.7879528010651814	0.0	0.9128928842526656	-0.9817662479434738	0.0	1.0026184739484891	-1.0125323285648167	0.0	0.9898581652147923	-1.0076493987818507	0.0	0.8933062413807635	-1.011493621923837	0.0	0.9772545497703243	-0.3086399399762847	0.0	1.0255048047527737	-0.1890925873780731	0.0	1.0319089424902415	-0.2631531449533689	0.0	0.9390725546966168	-0.3383604448398957	0.0	0.8703045993304961	-0.4713975229629185	0.0	0.8246341647193519	-0.5991369264354818	0.0	0.950778361307014	-0.34278052174364426	0.0	0.8909988825703936	-0.47480874123326083	0.0	0.8683474308282791	-0.5892807840532077	0.0
93	3.129807692307692	0.9342652233094487	-0.5873698680998002	0.0	0.9336333931694423	-0.5858734803432886	0.0	0.9293656619690075	-0.7925265916759208	0.0	0.9118741938782012	-1.0035276758024414	0.0	1.0051529084377622	-1.0308065722593882	0.0	0.987276423635349	-1.041595521157298	0.0	0.8949263190629384	-1.0286154079754508	0.0	0.9420536794306182	-0.5848259484656204	0.0	0.9268970130826245	-0.7866591830240827	0.0	0.9116152915164871	-0.9814406051162209	0.0	1.0021183008690038	-1.010731713978365	0.0	0.9890259730114345	-1.0065655887245821	0.0	0.8914745249779006	-1.010365711540313	0.0	0.9777589576050844	-0.3081096939526081	0.0	1.025646772800361	-0.1883034156311468	0.0	1.0325444458619644	-0.2626695787457753	0.0	0.9401840142801519	-0.3376706020650156	0.0	0.8688858808264479	-0.4700726131614666	0.0	0.8193457615165494	-0.5954308736243391	0.0	0.9454881006298611	-0.34215664857588995	0.0	0.8842829040035346	-0.47404289702497443	0.0	0.8474973933631169	-0.5879782061814125	0.0
94	3.1634615384615383	0.9338514868976644	-0.5871899478783366	0.0	0.933743843340753	-0.5857484987849323	0.0	0.9305637571822365	-0.7919630323185286	0.0	0.9121676538668924	-1.0039464262557296	0.0	1.0061339240857834	-1.0310201156799874	0.0	0.9886062902848061	-1.042019392535891	0.0	0.8949917379964175	-1.0289888179391384	0.0	0.9415113815998777	-0.5846977813551857	0.0	0.9257611089372427	-0.7856617007456157	0.0	0.9107627540417219	-0.9814016833659842	0.0	1.0018088062322457	-1.0094891662972942	0.0	0.9885137361603958	-1.0059211254618206	0.0	0.8899898248640686	-1.009555299462023	0.0	0.9779694258344627	-0.307767412152382	0.0	1.0254015789214803	-0.18765393209057155	0.0	1.0328487566944757	-0.2622673388087818	0.0	0.9407072931726705	-0.33745514553418254	0.0	0.8688301728052107	-0.46986592401580335	0.0	0.8178509295528368	-0.5939676881640591	0.0	0.9426900984187773	-0.34197686986933346	0.0	0.8812440682614104	-0.4739007761934906	0.0	0.8341664093420276	-0.5876970510081879	0.0
95	3.1971153846153846	0.9344423725786355	-0.5870035659647465	0.0	0.9341895969558621	-0.5855094683569941	0.0	0.9315389099943984	-0.7916300018142752	0.0	0.912208963527683	-1.0039220216831368	0.0	1.006441537488867	-1.0312043987778223	0.0	0.9890192270016002	-1.0421690958787373	0.0	0.8948393477132931	-1.0290451333666886	0.0	0.9422663139909369	-0.5845369188549231	0.0	0.9256862570710249	-0.785159671549384	0.0	0.9105953271142098	-0.9815954476085936	0.0	1.0018471864847345	-1.0093117178568995	0.0	0.9886270763189969	-1.0061757692896895	0.0	0.8892291628380844	-1.0093264781916653	0.0	0.9778776607271386	-0.3077190355234228	0.0	1.0248071639886205	-0.18721046485274556	0.0	1.0327638621373498	-0.26205276712037007	0.0	0.9405764672182505	-0.33758556480623564	0.0	0.8699445051546446	-0.4703727823220546	0.0	0.8197041736729336	-0.5944658662326471	0.0	0.942696252893	-0.3421195803255792	0.0	0.8820649164373929	-0.4741481160775572	0.0	0.8298371617181612	-0.588307312963756	0.0
96	3.230769230769231	0.9361686391479586	-0.5866725668257017	0.0	0.9352199775983148	-0.5850826215976019	0.0	0.9322389030612939	-0.7916184821410145	0.0	0.9120842447407616	-1.0034815041063785	0.0	1.006029348550283	-1.0313357909323957	0.0	0.988472304876583	-1.0420521840349068	0.0	0.8945973696177906	-1.0287499039480108	0.0	0.9442817380619191	-0.5841827540441257	0.0	0.9267372489500723	-0.7852296129088301	0.0	0.9111814444441426	-0.9819348424242195	0.0	1.0022950431521087	-1.0103256108451748	0.0	0.9894373617819606	-1.007343286306055	0.0	0.889349845979901	-1.009759911207434	0.0	0.9775045479646514	-0.30789703282318115	0.0	1.0238909310664694	-0.18694570456572315	0.0	1.032306467801197	-0.26202539800047797	0.0	0.9400212810048303	-0.33791011566413126	0.0	0.8720337755848597	-0.47123281262242006	0.0	0.8243670062494918	-0.5964169775526466	0.0	0.9449159426800845	-0.34237772932057353	0.0	0.8860828768899806	-0.4745032504633574	0.0	0.8341780101599519	-0.5894941939143459	0.0
97	3.2644230769230766	0.9388429577326798	-0.586201186408671	0.0	0.9369547887112678	-0.5845912430937679	0.0	0.9327180358399034	-0.7918888665360038	0.0	0.9119087738482186	-1.002896405121084	0.0	1.0050796534236215	-1.03137899116326	0.0	0.9871942737497259	-1.0416655117574989	0.0	0.8944289592389588	-1.02832350011382	0.0	0.9470886020012825	-0.5836779408491469	0.0	0.9286918381618882	-0.785801146020261	0.0	0.9123480712787524	-0.9823491343370625	0.0	1.003088143937469	-1.0121850294559944	0.0	0.9907598215237797	-1.0089990080883426	0.0	0.8902642295568854	-1.0107224014117686	0.0	0.9768949044774473	-0.3081169566031405	0.0	1.0226622131462435	-0.18675687480722722	0.0	1.031566564364563	-0.2620596338255629	0.0	0.9393582881492167	-0.33828915680302063	0.0	0.8748572306579753	-0.47217531603956364	0.0	0.8311542841162557	-0.5992033553372903	0.0	0.948354815667365	-0.3425438163286236	0.0	0.8921229779036288	-0.4747690741830666	0.0	0.8461087800384487	-0.5908617266757358	0.0
98	3.298076923076923	0.942077506909967	-0.5856849117273043	0.0	0.9392689862209606	-0.5842413494487031	0.0	0.9331115834655155	-0.7922859879790195	0.0	0.9117666947332972	-1.0024852147901906	0.0	1.0039947944303984	-1.031277948326605	0.0	0.9856384033247771	-1.0409962474273937	0.0	0.8944302030368517	-1.028076079801237	0.0	0.9500828978222953	-0.5831960137647894	0.0	0.9311445511894711	-0.7866647026352102	0.0	0.913755517377327	-0.9827994620401359	0.0	1.0041114940653233	-1.0142537027077512	0.0	0.9922784008191937	-1.0106087377119533	0.0	0.8916389999479472	-1.0119456701998686	0.0	0.9761101007312051	-0.30818973495479857	0.0	1.021124631142632	-0.18654328732868156	0.0	1.0306496203206201	-0.2619612472076412	0.0	0.9387095221380605	-0.33863485523800996	0.0	0.8781117465706034	-0.47304940565904907	0.0	0.8392347142623053	-0.6021627997657565	0.0	0.9522503592442387	-0.3425107473908785	0.0	0.898965761166331	-0.47489729455236523	0.0	0.8641668230610666	-0.5920468983863905	0.0
99	3.331730769230769	0.9454084887618172	-0.5852528995082612	0.0	0.9418024430884383	-0.5841888923732671	0.0	0.9335647259072958	-0.7926196933008904	0.0	0.9116859880551329	-1.0024088232061068	0.0	1.0032009995121265	-1.0309985805795892	0.0	0.9842864700694861	-1.0401027651886154	0.0	0.8945729490418771	-1.0281744569956581	0.0	0.9527553204516308	-0.5829147562220984	0.0	0.9336747850316598	-0.7875334539409118	0.0	0.9150497804775416	-0.9832321891838413	0.0	1.0052383566754868	-1.0159394594853095	0.0	0.9936862830946729	-1.0118226145192988	0.0	0.8930421020717273	-1.0131347604818728	0.0	0.9751946209025059	-0.308015810582723	0.0	1.0193351468153942	-0.18627131238234815	0.0	1.0296555508224847	-0.261615915738461	0.0	0.9380329516015641	-0.33891545517235755	0.0	0.8814668369894811	-0.4738154428764233	0.0	0.8476694875756602	-0.60474099212398	0.0	0.9561787661755173	-0.3422875380824631	0.0	0.9056092096153243	-0.47489944635097725	0.0	0.8859650570507235	-0.5928214380842921	0.0
100	3.3653846153846154	0.9484294155486429	-0.5850273807508537	0.0	0.944151875776535	-0.5844680156737276	0.0	0.9341781099711689	-0.7927786778884492	0.0	0.911669643897478	-1.002639411459282	0.0	1.0028915955192286	-1.0306196859783596	0.0	0.983426142141732	-1.0392012801461314	0.0	0.8947657379763274	-1.0285761842115744	0.0	0.9547760624478346	-0.5829189465953203	0.0	0.935952163130224	-0.788178843737136	0.0	0.9159610788708014	-0.9836076153051019	0.0	1.006316276660009	-1.0169516012118376	0.0	0.9947676946594368	-1.0125339474619925	0.0	0.8941523344589494	-1.014065034900103	0.0	0.9741642193101144	-0.30759037191150107	0.0	1.0174434127931418	-0.18595514999428833	0.0	1.0286971058319592	-0.2610589189153269	0.0	0.9373607706635746	-0.3391460181932224	0.0	0.8846021934952522	-0.4745335335879223	0.0	0.8555334373778671	-0.6067195125511384	0.0	0.9596697010720031	-0.3419353114149489	0.0	0.9112264857125217	-0.4747965911331889	0.0	0.9076072911374102	-0.5931590063113151	0.0
101	3.3990384615384612	0.9509039455865607	-0.5850726182016167	0.0	0.9460497624416884	-0.584974180411904	0.0	0.9349848612167274	-0.7927500875766411	0.0	0.9117324933627715	-1.0030911753091507	0.0	1.0029965719474798	-1.0303508440683207	0.0	0.9831230020297665	-1.0386235351291735	0.0	0.8949378501764749	-1.029153658936542	0.0	0.9560603965152639	-0.583170884060007	0.0	0.9377625033620935	-0.7885025437466334	0.0	0.9163375191111706	-0.9839953339653185	0.0	1.0072066977391627	-1.0173448660655628	0.0	0.9954535810624753	-1.0128223596629216	0.0	0.894852692576319	-1.0146345969367672	0.0	0.97305745725454	-0.3069528823994716	0.0	1.015618759931372	-0.18560753677061043	0.0	1.0278634206537258	-0.2603625869003933	0.0	0.9368197871211494	-0.3393772776911801	0.0	0.8872283718049698	-0.4753600954962375	0.0	0.8621454988568588	-0.6082453627055728	0.0	0.9621870777365135	-0.34152655173992	0.0	0.9152415104350359	-0.47468376518953753	0.0	0.925122875014028	-0.5932027201650614	0.0
